# xmcd CD database file
#
# Track frame offsets:
#	150
#	20928
#	39934
#	66218
#	92638
#	117533
#	137826
#	164197
#	187662
#	211078
#
# Disc length: 3163 seconds
#
# Revision: 0
# Processed by: cddbd v1.5.1PL0 Copyright (c) Steve Scherf et al.
# Submitted via: CDex 1.51
#
DISCID=8d0c590a
DTITLE=Greg Vail - The Gospel Truth
DYEAR=2001
DGENRE=Jazz
TTITLE0=People All Over The World
TTITLE1=Healing Grace
TTITLE2=Europa
TTITLE3=Good And Worthy
TTITLE4=Dont Give Up
TTITLE5=My Life (Will Worship You)
TTITLE6=Take Time
TTITLE7=I Know the Plans
TTITLE8=Only The Lord Of Love
TTITLE9=Fall
EXTD=YEAR: 2001
EXTT0=
EXTT1=
EXTT2=
EXTT3=
EXTT4=
EXTT5=
EXTT6=
EXTT7=
EXTT8=
EXTT9=
PLAYORDER=
